<svg xmlns="http://www.w3.org/2000/svg" xmlns:xlink="http://www.w3.org/1999/xlink" version="1.1" viewBox="0 0 50 50"><g id="surface1"><path d="M 15.6875 4 C 14.085938 4 12.707031 4.886719 11.90625 6.1875 L 2.59375 22.8125 C 1.792969 24.210938 1.792969 25.914063 2.59375 27.3125 L 11.90625 43.8125 C 12.707031 45.210938 14.085938 46 15.6875 46 L 34.3125 46 C 35.914063 46 37.292969 45.113281 38.09375 43.8125 L 47.40625 27.3125 C 48.207031 25.914063 48.207031 24.113281 47.40625 22.8125 L 38.09375 6.1875 C 37.292969 4.886719 35.914063 4 34.3125 4 Z M 20 15 L 22 15 L 22 18 L 24 18 L 24 15 L 26 15 L 26 18 L 28 18 L 28 15 L 30 15 L 30 18 L 32 18 L 32 20 L 35 20 L 35 22 L 32 22 L 32 24 L 35 24 L 35 26 L 32 26 L 32 28 L 35 28 L 35 30 L 32 30 L 32 32 L 30 32 L 30 35 L 28 35 L 28 32 L 26 32 L 26 35 L 24 35 L 24 32 L 22 32 L 22 35 L 20 35 L 20 32 L 18 32 L 18 30 L 15 30 L 15 28 L 18 28 L 18 26 L 15 26 L 15 24 L 18 24 L 18 22 L 15 22 L 15 20 L 18 20 L 18 18 L 20 18 Z M 20 20 L 20 30 L 30 30 L 30 20 Z M 22 22 L 28 22 L 28 28 L 22 28 Z"/></g></svg>